<?xml version="1.0" ?><svg id="Certificate" viewBox="0 0 512 480" xmlns="http://www.w3.org/2000/svg"><path d="M278.5757,217.6939l16.3614-.0876c10.38-10.87,22.911-23.7955,39.2874-22.8363,16.44-.8844,28.9075,11.8155,39.29,22.8363,6.9471.267,20.3583-.7648,26.861,1.662V115.1441H111.625v166.25H231.2368l8.1391-8.2255.1751-16.3625A39.4791,39.4791,0,0,1,278.5757,217.6939ZM168.5,181.206c-17.2031-.2585-17.2992-25.9712,0-26.25h175c17.1817.3044,17.2821,25.9253,0,26.25Z"/><path d="M452.875,49.5191H59.125A13.0881,13.0881,0,0,0,46,62.5566V333.8941a13.1633,13.1633,0,0,0,13.125,13.125H234.7381c-11.63-10.2806-20.2322-23.7548-17.7628-39.375H98.5a13.1633,13.1633,0,0,1-13.125-13.125v-192.5A13.1066,13.1066,0,0,1,98.5,88.8941h315a13.1628,13.1628,0,0,1,13.125,13.125V243.8563c3.3282,7.4084,2.2174,21.2384,2.45,29.3123l11.5506,11.6371c18.4591,19.4717,12.86,46.1063-6.9129,62.2134h19.162A13.22,13.22,0,0,0,466,333.8941V62.5566A13.1446,13.1446,0,0,0,452.875,49.5191Z"/><path d="M409.7381,407.0429l-36.2241.2628L356.8,423.7557l13.0182,35.8364a4.3744,4.3744,0,0,0,8.0749.3567l12.1573-26.0428,25.94,12.14a4.3745,4.3745,0,0,0,5.9644-5.458Z"/><path d="M258.8006,407.0429l-12.2171,33.5453a4.3745,4.3745,0,0,0,5.9644,5.458l25.94-12.14L290.65,459.9574a4.3719,4.3719,0,0,0,8.0706-.3546l13.0182-35.7595-16.8014-16.5376Z"/><path d="M402.93,283.9961l-.1965-27.0362a13.0986,13.0986,0,0,0-13.0011-13.0011l-27.0361-.1965-19.25-18.9729a13.0962,13.0962,0,0,0-18.3865,0l-19.2475,18.9729-27.0361.1965a13.0942,13.0942,0,0,0-13.0011,13l-.1987,27.0372-18.9718,19.2474a13.0955,13.0955,0,0,0,0,18.3876L265.5767,340.88l.1966,27.0361a13.0985,13.0985,0,0,0,13.0011,13.0011l27.0361.1966,19.25,18.9729a13.0962,13.0962,0,0,0,18.3865,0l19.2474-18.9729,27.0362-.1966a13.0969,13.0969,0,0,0,13.0011-13L402.93,340.88l18.9719-19.2485a13.0943,13.0943,0,0,0,0-18.3865Zm-68.6755,63.4417c-46.2622-1.427-46.2537-68.5794,0-70C380.5166,278.867,380.5059,346.0162,334.2544,347.4378Z"/></svg>